<svg preserveAspectRatio="none" overflow="visible" style="display: block;" width="137.143" height="40" viewBox="0 0 137.143 40" fill="none" xmlns="http://www.w3.org/2000/svg">
<g id="Group">
<path id="BG" d="M132.063 0H5.07936C2.28698 0 0 2.25125 0 5V35C0 37.7487 2.28698 40 5.07936 40H132.063C134.856 40 137.143 37.7487 137.143 35V5C137.143 2.25125 134.856 0 132.063 0Z" fill="black"/>
<path id="Border" d="M132.063 39.1988C134.415 39.1988 136.329 37.315 136.329 35V5C136.329 2.685 134.415 0.80125 132.063 0.80125H5.07936C2.72762 0.80125 0.813968 2.685 0.813968 5V35C0.813968 37.315 2.72762 39.1988 5.07936 39.1988H132.063ZM132.063 40H5.07936C2.28698 40 0 37.7487 0 35V5C0 2.25125 2.28698 0 5.07936 0H132.063C134.856 0 137.143 2.25125 137.143 5V35C137.143 37.7487 134.856 40 132.063 40Z" fill="#A6A6A6"/>
<g id="Icon">
<path id="Vector" d="M10.6006 32.4613C10.3022 32.1538 10.1295 31.675 10.1295 31.055V8.94001C10.1295 8.32001 10.3022 7.84126 10.6006 7.53376L10.6743 7.46626L23.2635 19.8538V20.1463L10.6743 32.5338L10.6006 32.4613Z" fill="url(#paint0_linear_0_96)"/>
<path id="Vector_2" d="M27.4552 15.7225L23.2635 19.8538V20.1463L27.4603 24.2775L27.5543 24.2238L32.5244 21.44C33.9428 20.65 33.9428 19.35 32.5244 18.555L27.5543 15.7763L27.4552 15.7225V15.7225Z" fill="url(#paint1_linear_0_96)"/>
<path id="Vector_3" d="M27.5543 15.7763L23.2635 20L10.6006 7.53375C11.0717 7.04625 11.84 6.9875 12.7136 7.475L27.5543 15.7763" fill="url(#paint2_linear_0_96)"/>
<path id="Vector_4" d="M27.5543 24.2237L12.7136 32.525C11.84 33.0075 11.0717 32.9487 10.6006 32.4612L23.2635 20L27.5543 24.2237Z" fill="url(#paint3_linear_0_96)"/>
</g>
<g id="GET IT ON">
<path id="G" d="M48.1701 29.7562C48.1701 28.9212 47.9162 28.2525 47.4159 27.7537C46.8406 27.1625 46.0914 26.865 45.1733 26.865C44.2959 26.865 43.5467 27.1675 42.9321 27.7637C42.3162 28.3687 42.0089 29.1112 42.0089 30C42.0089 30.8887 42.3162 31.6312 42.9321 32.2312C43.5467 32.8325 44.2959 33.135 45.1733 33.135C45.6102 33.135 46.0267 33.0462 46.4241 32.8812C46.8203 32.715 47.1428 32.49 47.3765 32.2125L46.8457 31.685C46.4381 32.1587 45.8832 32.3925 45.1733 32.3925C44.5333 32.3925 43.9784 32.1725 43.5073 31.7287C43.0413 31.2837 42.8076 30.7075 42.8076 30C42.8076 29.2925 43.0413 28.7113 43.5073 28.2663C43.9784 27.8275 44.5333 27.6025 45.1733 27.6025C45.8527 27.6025 46.4241 27.8275 46.8749 28.2712C47.1721 28.565 47.3409 28.97 47.3854 29.4875H45.1733V30.21H48.1244C48.16 30.0537 48.1701 29.9025 48.1701 29.7562V29.7562Z" fill="white" stroke="white" stroke-width="0.16" stroke-miterlimit="10"/>
<path id="E" d="M52.8521 32.2613H50.08V30.3613H52.579V29.6388H50.08V27.7388H52.8521V27.0025H49.2952V32.9975H52.8521V32.2613Z" fill="white" stroke="white" stroke-width="0.16" stroke-miterlimit="10"/>
<path id="T" d="M56.1562 27.0025H55.3714V32.2613H53.6711V32.9975H57.8577V32.2613H56.1562V27.0025V27.0025Z" fill="white" stroke="white" stroke-width="0.16" stroke-miterlimit="10"/>
<path id="I" d="M60.8876 27.0025V32.9975H61.6711V27.0025H60.8876Z" fill="white" stroke="white" stroke-width="0.16" stroke-miterlimit="10"/>
<path id="T_2" d="M65.1441 27.0025H64.3657V32.2613H62.659V32.9975H66.8508V32.2613H65.1441V27.0025Z" fill="white" stroke="white" stroke-width="0.16" stroke-miterlimit="10"/>
<path id="O" d="M74.7771 27.7737C74.1765 27.1675 73.4324 26.865 72.5447 26.865C71.652 26.865 70.9079 27.1675 70.3073 27.7737C69.7079 28.3787 69.4095 29.1212 69.4095 30C69.4095 30.8787 69.7079 31.6212 70.3073 32.2262C70.9079 32.8325 71.652 33.135 72.5447 33.135C73.4273 33.135 74.1714 32.8325 74.772 32.2212C75.3765 31.6112 75.6749 30.8737 75.6749 30C75.6749 29.1212 75.3765 28.3787 74.7771 27.7737ZM70.8876 28.2762C71.3397 27.8275 71.8895 27.6025 72.5447 27.6025C73.1949 27.6025 73.7498 27.8275 74.1968 28.2762C74.6476 28.725 74.8762 29.3012 74.8762 30C74.8762 30.6987 74.6476 31.275 74.1968 31.7237C73.7498 32.1725 73.1949 32.3975 72.5447 32.3975C71.8895 32.3975 71.3397 32.1725 70.8876 31.7237C70.4368 31.275 70.2082 30.6987 70.2082 30C70.2082 29.3012 70.4368 28.725 70.8876 28.2762V28.2762Z" fill="white" stroke="white" stroke-width="0.16" stroke-miterlimit="10"/>
<path id="N" d="M76.7758 27.0025V32.9975H77.7282L80.6895 28.335H80.7238L80.6895 29.4875V32.9975H81.473V27.0025H80.6552L77.5543 31.895H77.52L77.5543 30.7375V27.0025H76.7758V27.0025Z" fill="white" stroke="white" stroke-width="0.16" stroke-miterlimit="10"/>
</g>
<g id="Google Play">
<path id="Google Play_2" d="M69.2165 18.2475C66.8305 18.2475 64.8813 16.46 64.8813 13.9937C64.8813 11.5475 66.8305 9.74124 69.2165 9.74124C71.6076 9.74124 73.5568 11.5475 73.5568 13.9937C73.5568 16.46 71.6076 18.2475 69.2165 18.2475ZM69.2165 11.4162C67.9073 11.4162 66.7809 12.48 66.7809 13.9937C66.7809 15.5275 67.9073 16.5725 69.2165 16.5725C70.5257 16.5725 71.6571 15.5275 71.6571 13.9937C71.6571 12.48 70.5257 11.4162 69.2165 11.4162V11.4162ZM59.7575 18.2475C57.3663 18.2475 55.4222 16.46 55.4222 13.9937C55.4222 11.5475 57.3663 9.74124 59.7575 9.74124C62.1473 9.74124 64.0927 11.5475 64.0927 13.9937C64.0927 16.46 62.1473 18.2475 59.7575 18.2475ZM59.7575 11.4162C58.447 11.4162 57.3168 12.48 57.3168 13.9937C57.3168 15.5275 58.447 16.5725 59.7575 16.5725C61.0667 16.5725 62.193 15.5275 62.193 13.9937C62.193 12.48 61.0667 11.4162 59.7575 11.4162ZM48.5016 16.9437V15.1362H52.8863C52.7581 14.1262 52.4152 13.3837 51.8895 12.8662C51.2495 12.2412 50.2527 11.5475 48.5016 11.5475C45.8032 11.5475 43.6902 13.6912 43.6902 16.3475C43.6902 19.0037 45.8032 21.1475 48.5016 21.1475C49.9606 21.1475 51.0222 20.5862 51.8057 19.8587L53.0997 21.1325C52.0038 22.1625 50.546 22.9537 48.5016 22.9537C44.8013 22.9537 41.6914 19.99 41.6914 16.3475C41.6914 12.705 44.8013 9.74124 48.5016 9.74124C50.5016 9.74124 52.0038 10.3862 53.1848 11.5962C54.3949 12.7875 54.7721 14.4625 54.7721 15.815C54.7721 16.235 54.7365 16.6212 54.673 16.9437H48.5016ZM94.5282 15.5425C94.1714 16.4937 93.0705 18.2475 90.8279 18.2475C88.6057 18.2475 86.7555 16.5237 86.7555 13.9937C86.7555 11.6112 88.5866 9.74124 91.0413 9.74124C93.026 9.74124 94.1714 10.9325 94.6425 11.6262L93.1695 12.5925C92.6781 11.885 92.0089 11.4162 91.0413 11.4162C90.08 11.4162 89.3905 11.85 88.9486 12.705L94.7276 15.0587L94.5282 15.5425V15.5425ZM88.6362 14.1262C88.5867 15.7662 89.9301 16.6062 90.8927 16.6062C91.647 16.6062 92.287 16.235 92.5003 15.7037L88.6362 14.1262V14.1262ZM83.939 9.99999H85.8387V22.5H83.939V9.99999ZM80.8279 17.3H80.7644C80.3378 17.7975 79.5238 18.2475 78.4927 18.2475C76.3289 18.2475 74.3505 16.3775 74.3505 13.98C74.3505 11.5962 76.3289 9.74124 78.4927 9.74124C79.5238 9.74124 80.3378 10.195 80.7644 10.7075H80.8279V10.0975C80.8279 8.47124 79.9454 7.59749 78.5219 7.59749C77.3613 7.59749 76.6413 8.42249 76.3441 9.11624L74.6921 8.43749C75.1682 7.30999 76.4292 5.92249 78.5219 5.92249C80.7492 5.92249 82.6286 7.21249 82.6286 10.3512V17.9887H80.8279V17.3V17.3ZM78.6552 11.4162C77.346 11.4162 76.2501 12.495 76.2501 13.98C76.2501 15.4787 77.346 16.5725 78.6552 16.5725C79.9454 16.5725 80.9625 15.4787 80.9625 13.98C80.9625 12.495 79.9454 11.4162 78.6552 11.4162V11.4162ZM103.422 22.5H98.8787V9.99999H100.773V14.7362H103.422C105.526 14.7362 107.59 16.235 107.59 18.6187C107.59 21.0012 105.521 22.5 103.422 22.5V22.5ZM103.472 16.475H100.773V20.7612H103.472C104.886 20.7612 105.694 19.605 105.694 18.6187C105.694 17.6512 104.886 16.475 103.472 16.475ZM115.183 18.2712C113.815 18.2712 112.391 17.6762 111.806 16.3575L113.487 15.6637C113.849 16.3575 114.514 16.5825 115.218 16.5825C116.201 16.5825 117.197 16.0012 117.213 14.975V14.8437C116.87 15.0387 116.136 15.3275 115.233 15.3275C113.422 15.3275 111.577 14.3462 111.577 12.515C111.577 10.84 113.06 9.76124 114.728 9.76124C116.003 9.76124 116.706 10.3275 117.148 10.9862H117.213V10.02H119.043V14.815C119.043 17.0312 117.361 18.2712 115.183 18.2712ZM114.955 11.4212C114.335 11.4212 113.472 11.7237 113.472 12.48C113.472 13.4475 114.549 13.8187 115.481 13.8187C116.315 13.8187 116.706 13.6375 117.213 13.3987C117.064 12.2412 116.052 11.4212 114.955 11.4212V11.4212ZM125.709 17.9975L123.531 12.5787H123.467L121.215 17.9975H119.172L122.555 10.425L120.625 6.21124H122.604L127.817 17.9975H125.709V17.9975ZM108.631 9.99999H110.531V22.5H108.631V9.99999Z" fill="white"/>
</g>
</g>
<defs>
<linearGradient id="paint0_linear_0_96" x1="22.1457" y1="8.70971" x2="5.36541" y2="25.7564" gradientUnits="userSpaceOnUse">
<stop stop-color="#00A0FF"/>
<stop offset="0.0066" stop-color="#00A1FF"/>
<stop offset="0.2601" stop-color="#00BEFF"/>
<stop offset="0.5122" stop-color="#00D2FF"/>
<stop offset="0.7604" stop-color="#00DFFF"/>
<stop offset="1" stop-color="#00E3FF"/>
</linearGradient>
<linearGradient id="paint1_linear_0_96" x1="34.3714" y1="20.0014" x2="9.79045" y2="20.0014" gradientUnits="userSpaceOnUse">
<stop stop-color="#FFE000"/>
<stop offset="0.4087" stop-color="#FFBD00"/>
<stop offset="0.7754" stop-color="#FFA500"/>
<stop offset="1" stop-color="#FF9C00"/>
</linearGradient>
<linearGradient id="paint2_linear_0_96" x1="25.2211" y1="22.2961" x2="2.4656" y2="45.4128" gradientUnits="userSpaceOnUse">
<stop stop-color="#FF3A44"/>
<stop offset="1" stop-color="#C31162"/>
</linearGradient>
<linearGradient id="paint3_linear_0_96" x1="7.41313" y1="0.176194" x2="17.5745" y2="10.4987" gradientUnits="userSpaceOnUse">
<stop stop-color="#32A071"/>
<stop offset="0.0685" stop-color="#2DA771"/>
<stop offset="0.4762" stop-color="#15CF74"/>
<stop offset="0.8009" stop-color="#06E775"/>
<stop offset="1" stop-color="#00F076"/>
</linearGradient>
</defs>
</svg>
